<mxfile host="Electron" agent="Mozilla/5.0 (Windows NT 10.0; Win64; x64) AppleWebKit/537.36 (KHTML, like Gecko) draw.io/24.7.8 Chrome/128.0.6613.36 Electron/32.0.1 Safari/537.36" version="24.7.8" pages="5">
  <diagram id="C5RBs43oDa-KdzZeNtuy" name="Page-1">
    <mxGraphModel dx="1834" dy="836" grid="0" gridSize="10" guides="1" tooltips="1" connect="1" arrows="1" fold="0" page="0" pageScale="1" pageWidth="827" pageHeight="1169" math="0" shadow="0">
      <root>
        <mxCell id="WIyWlLk6GJQsqaUBKTNV-0" />
        <mxCell id="WIyWlLk6GJQsqaUBKTNV-1" parent="WIyWlLk6GJQsqaUBKTNV-0" />
        <mxCell id="brCjewZM9ORwXbSxZmHH-0" value="&lt;b&gt;DCC : Usine trombone&lt;/b&gt;" style="shape=umlFrame;whiteSpace=wrap;html=1;pointerEvents=0;recursiveResize=0;container=1;collapsible=0;width=160;" vertex="1" parent="WIyWlLk6GJQsqaUBKTNV-1">
          <mxGeometry x="-158" y="118" width="612" height="216" as="geometry" />
        </mxCell>
        <mxCell id="brCjewZM9ORwXbSxZmHH-1" value="&lt;b&gt;Joueur&lt;/b&gt;&lt;div&gt;&lt;br/&gt;&lt;/div&gt;" style="swimlane;fontStyle=0;align=center;verticalAlign=top;childLayout=stackLayout;horizontal=1;startSize=25;horizontalStack=0;resizeParent=1;resizeParentMax=0;resizeLast=0;collapsible=0;marginBottom=0;html=1;whiteSpace=wrap;" vertex="1" parent="brCjewZM9ORwXbSxZmHH-0">
          <mxGeometry x="23" y="53" width="140" height="113" as="geometry" />
        </mxCell>
        <mxCell id="brCjewZM9ORwXbSxZmHH-2" value="attributs" style="text;html=1;strokeColor=none;fillColor=none;align=center;verticalAlign=middle;spacingLeft=4;spacingRight=4;overflow=hidden;rotatable=0;points=[[0,0.5],[1,0.5]];portConstraint=eastwest;whiteSpace=wrap;" vertex="1" parent="brCjewZM9ORwXbSxZmHH-1">
          <mxGeometry y="25" width="140" height="20" as="geometry" />
        </mxCell>
        <mxCell id="brCjewZM9ORwXbSxZmHH-9" value="- argent : int" style="text;html=1;strokeColor=none;fillColor=none;align=left;verticalAlign=middle;spacingLeft=4;spacingRight=4;overflow=hidden;rotatable=0;points=[[0,0.5],[1,0.5]];portConstraint=eastwest;whiteSpace=wrap;" vertex="1" parent="brCjewZM9ORwXbSxZmHH-1">
          <mxGeometry y="45" width="140" height="20" as="geometry" />
        </mxCell>
        <mxCell id="brCjewZM9ORwXbSxZmHH-3" value="- usine : Usine" style="text;html=1;strokeColor=none;fillColor=none;align=left;verticalAlign=middle;spacingLeft=4;spacingRight=4;overflow=hidden;rotatable=0;points=[[0,0.5],[1,0.5]];portConstraint=eastwest;whiteSpace=wrap;" vertex="1" parent="brCjewZM9ORwXbSxZmHH-1">
          <mxGeometry y="65" width="140" height="20" as="geometry" />
        </mxCell>
        <mxCell id="brCjewZM9ORwXbSxZmHH-6" value="" style="line;strokeWidth=1;fillColor=none;align=left;verticalAlign=middle;spacingTop=-1;spacingLeft=3;spacingRight=3;rotatable=0;labelPosition=right;points=[];portConstraint=eastwest;" vertex="1" parent="brCjewZM9ORwXbSxZmHH-1">
          <mxGeometry y="85" width="140" height="8" as="geometry" />
        </mxCell>
        <mxCell id="brCjewZM9ORwXbSxZmHH-7" value="opérations" style="text;html=1;strokeColor=none;fillColor=none;align=center;verticalAlign=middle;spacingLeft=4;spacingRight=4;overflow=hidden;rotatable=0;points=[[0,0.5],[1,0.5]];portConstraint=eastwest;whiteSpace=wrap;" vertex="1" parent="brCjewZM9ORwXbSxZmHH-1">
          <mxGeometry y="93" width="140" height="20" as="geometry" />
        </mxCell>
        <mxCell id="brCjewZM9ORwXbSxZmHH-10" value="&lt;b&gt;Usine&lt;/b&gt;&lt;div&gt;&lt;br&gt;&lt;/div&gt;" style="swimlane;fontStyle=0;align=center;verticalAlign=top;childLayout=stackLayout;horizontal=1;startSize=25;horizontalStack=0;resizeParent=1;resizeParentMax=0;resizeLast=0;collapsible=0;marginBottom=0;html=1;whiteSpace=wrap;" vertex="1" parent="brCjewZM9ORwXbSxZmHH-0">
          <mxGeometry x="226" y="53" width="156" height="133" as="geometry" />
        </mxCell>
        <mxCell id="brCjewZM9ORwXbSxZmHH-11" value="attributs" style="text;html=1;strokeColor=none;fillColor=none;align=center;verticalAlign=middle;spacingLeft=4;spacingRight=4;overflow=hidden;rotatable=0;points=[[0,0.5],[1,0.5]];portConstraint=eastwest;whiteSpace=wrap;" vertex="1" parent="brCjewZM9ORwXbSxZmHH-10">
          <mxGeometry y="25" width="156" height="20" as="geometry" />
        </mxCell>
        <mxCell id="brCjewZM9ORwXbSxZmHH-12" value="- qualite : int" style="text;html=1;strokeColor=none;fillColor=none;align=left;verticalAlign=middle;spacingLeft=4;spacingRight=4;overflow=hidden;rotatable=0;points=[[0,0.5],[1,0.5]];portConstraint=eastwest;whiteSpace=wrap;" vertex="1" parent="brCjewZM9ORwXbSxZmHH-10">
          <mxGeometry y="45" width="156" height="20" as="geometry" />
        </mxCell>
        <mxCell id="brCjewZM9ORwXbSxZmHH-13" value="- matiereConsommee : int" style="text;html=1;strokeColor=none;fillColor=none;align=left;verticalAlign=middle;spacingLeft=4;spacingRight=4;overflow=hidden;rotatable=0;points=[[0,0.5],[1,0.5]];portConstraint=eastwest;whiteSpace=wrap;" vertex="1" parent="brCjewZM9ORwXbSxZmHH-10">
          <mxGeometry y="65" width="156" height="20" as="geometry" />
        </mxCell>
        <mxCell id="brCjewZM9ORwXbSxZmHH-16" value="- vitesseProduction : int" style="text;html=1;strokeColor=none;fillColor=none;align=left;verticalAlign=middle;spacingLeft=4;spacingRight=4;overflow=hidden;rotatable=0;points=[[0,0.5],[1,0.5]];portConstraint=eastwest;whiteSpace=wrap;" vertex="1" parent="brCjewZM9ORwXbSxZmHH-10">
          <mxGeometry y="85" width="156" height="20" as="geometry" />
        </mxCell>
        <mxCell id="brCjewZM9ORwXbSxZmHH-14" value="" style="line;strokeWidth=1;fillColor=none;align=left;verticalAlign=middle;spacingTop=-1;spacingLeft=3;spacingRight=3;rotatable=0;labelPosition=right;points=[];portConstraint=eastwest;" vertex="1" parent="brCjewZM9ORwXbSxZmHH-10">
          <mxGeometry y="105" width="156" height="8" as="geometry" />
        </mxCell>
        <mxCell id="brCjewZM9ORwXbSxZmHH-15" value="opérations" style="text;html=1;strokeColor=none;fillColor=none;align=center;verticalAlign=middle;spacingLeft=4;spacingRight=4;overflow=hidden;rotatable=0;points=[[0,0.5],[1,0.5]];portConstraint=eastwest;whiteSpace=wrap;" vertex="1" parent="brCjewZM9ORwXbSxZmHH-10">
          <mxGeometry y="113" width="156" height="20" as="geometry" />
        </mxCell>
        <mxCell id="brCjewZM9ORwXbSxZmHH-17" value="&lt;b&gt;Amelioration&lt;/b&gt;" style="swimlane;fontStyle=0;align=center;verticalAlign=top;childLayout=stackLayout;horizontal=1;startSize=25;horizontalStack=0;resizeParent=1;resizeParentMax=0;resizeLast=0;collapsible=0;marginBottom=0;html=1;whiteSpace=wrap;" vertex="1" parent="brCjewZM9ORwXbSxZmHH-0">
          <mxGeometry x="430" y="53" width="156" height="113" as="geometry" />
        </mxCell>
        <mxCell id="brCjewZM9ORwXbSxZmHH-18" value="attributs" style="text;html=1;strokeColor=none;fillColor=none;align=center;verticalAlign=middle;spacingLeft=4;spacingRight=4;overflow=hidden;rotatable=0;points=[[0,0.5],[1,0.5]];portConstraint=eastwest;whiteSpace=wrap;" vertex="1" parent="brCjewZM9ORwXbSxZmHH-17">
          <mxGeometry y="25" width="156" height="20" as="geometry" />
        </mxCell>
        <mxCell id="brCjewZM9ORwXbSxZmHH-19" value="- amelioration : int" style="text;html=1;strokeColor=none;fillColor=none;align=left;verticalAlign=middle;spacingLeft=4;spacingRight=4;overflow=hidden;rotatable=0;points=[[0,0.5],[1,0.5]];portConstraint=eastwest;whiteSpace=wrap;" vertex="1" parent="brCjewZM9ORwXbSxZmHH-17">
          <mxGeometry y="45" width="156" height="20" as="geometry" />
        </mxCell>
        <mxCell id="brCjewZM9ORwXbSxZmHH-20" value="- tempsRecherche : int" style="text;html=1;strokeColor=none;fillColor=none;align=left;verticalAlign=middle;spacingLeft=4;spacingRight=4;overflow=hidden;rotatable=0;points=[[0,0.5],[1,0.5]];portConstraint=eastwest;whiteSpace=wrap;" vertex="1" parent="brCjewZM9ORwXbSxZmHH-17">
          <mxGeometry y="65" width="156" height="20" as="geometry" />
        </mxCell>
        <mxCell id="brCjewZM9ORwXbSxZmHH-22" value="" style="line;strokeWidth=1;fillColor=none;align=left;verticalAlign=middle;spacingTop=-1;spacingLeft=3;spacingRight=3;rotatable=0;labelPosition=right;points=[];portConstraint=eastwest;" vertex="1" parent="brCjewZM9ORwXbSxZmHH-17">
          <mxGeometry y="85" width="156" height="8" as="geometry" />
        </mxCell>
        <mxCell id="brCjewZM9ORwXbSxZmHH-23" value="opérations" style="text;html=1;strokeColor=none;fillColor=none;align=center;verticalAlign=middle;spacingLeft=4;spacingRight=4;overflow=hidden;rotatable=0;points=[[0,0.5],[1,0.5]];portConstraint=eastwest;whiteSpace=wrap;" vertex="1" parent="brCjewZM9ORwXbSxZmHH-17">
          <mxGeometry y="93" width="156" height="20" as="geometry" />
        </mxCell>
        <mxCell id="brCjewZM9ORwXbSxZmHH-24" style="edgeStyle=orthogonalEdgeStyle;rounded=0;orthogonalLoop=1;jettySize=auto;html=1;exitX=0;exitY=0.5;exitDx=0;exitDy=0;entryX=1;entryY=0.5;entryDx=0;entryDy=0;endArrow=diamondThin;endFill=0;endSize=20;" edge="1" parent="brCjewZM9ORwXbSxZmHH-0" source="brCjewZM9ORwXbSxZmHH-13" target="brCjewZM9ORwXbSxZmHH-9">
          <mxGeometry relative="1" as="geometry" />
        </mxCell>
      </root>
    </mxGraphModel>
  </diagram>
  <diagram id="1hK2w_E-KJm5SgZxBm1y" name="Page-2">
    <mxGraphModel dx="1219" dy="478" grid="0" gridSize="10" guides="1" tooltips="1" connect="1" arrows="1" fold="1" page="0" pageScale="1" pageWidth="827" pageHeight="1169" math="0" shadow="0">
      <root>
        <mxCell id="0" />
        <mxCell id="1" parent="0" />
        <mxCell id="AS3IExIb6AA8T86Rk0yP-1" value="&lt;b&gt;DCC : Usine trombone&lt;/b&gt;" style="shape=umlFrame;whiteSpace=wrap;html=1;pointerEvents=0;recursiveResize=0;container=1;collapsible=0;width=160;" vertex="1" parent="1">
          <mxGeometry x="-158" y="118" width="771" height="279" as="geometry" />
        </mxCell>
        <mxCell id="AS3IExIb6AA8T86Rk0yP-2" value="&lt;b&gt;Joueur&lt;/b&gt;&lt;div&gt;&lt;br/&gt;&lt;/div&gt;" style="swimlane;fontStyle=0;align=center;verticalAlign=top;childLayout=stackLayout;horizontal=1;startSize=25;horizontalStack=0;resizeParent=1;resizeParentMax=0;resizeLast=0;collapsible=0;marginBottom=0;html=1;whiteSpace=wrap;" vertex="1" parent="AS3IExIb6AA8T86Rk0yP-1">
          <mxGeometry x="23" y="53" width="140" height="128" as="geometry" />
        </mxCell>
        <mxCell id="AS3IExIb6AA8T86Rk0yP-3" value="attributs" style="text;html=1;strokeColor=none;fillColor=none;align=center;verticalAlign=middle;spacingLeft=4;spacingRight=4;overflow=hidden;rotatable=0;points=[[0,0.5],[1,0.5]];portConstraint=eastwest;whiteSpace=wrap;" vertex="1" parent="AS3IExIb6AA8T86Rk0yP-2">
          <mxGeometry y="25" width="140" height="20" as="geometry" />
        </mxCell>
        <mxCell id="AS3IExIb6AA8T86Rk0yP-4" value="- argent : int" style="text;html=1;strokeColor=none;fillColor=none;align=left;verticalAlign=middle;spacingLeft=4;spacingRight=4;overflow=hidden;rotatable=0;points=[[0,0.5],[1,0.5]];portConstraint=eastwest;whiteSpace=wrap;" vertex="1" parent="AS3IExIb6AA8T86Rk0yP-2">
          <mxGeometry y="45" width="140" height="20" as="geometry" />
        </mxCell>
        <mxCell id="AS3IExIb6AA8T86Rk0yP-6" value="" style="line;strokeWidth=1;fillColor=none;align=left;verticalAlign=middle;spacingTop=-1;spacingLeft=3;spacingRight=3;rotatable=0;labelPosition=right;points=[];portConstraint=eastwest;" vertex="1" parent="AS3IExIb6AA8T86Rk0yP-2">
          <mxGeometry y="65" width="140" height="8" as="geometry" />
        </mxCell>
        <mxCell id="AS3IExIb6AA8T86Rk0yP-7" value="opérations" style="text;html=1;strokeColor=none;fillColor=none;align=center;verticalAlign=middle;spacingLeft=4;spacingRight=4;overflow=hidden;rotatable=0;points=[[0,0.5],[1,0.5]];portConstraint=eastwest;whiteSpace=wrap;" vertex="1" parent="AS3IExIb6AA8T86Rk0yP-2">
          <mxGeometry y="73" width="140" height="20" as="geometry" />
        </mxCell>
        <mxCell id="UJmZjogbtUFLE51L1w-g-1" value="+ Payer (montant : int) : &lt;span style=&quot;white-space: pre;&quot;&gt;&#x9;&lt;/span&gt;&lt;span style=&quot;white-space: pre;&quot;&gt;&#x9;&lt;/span&gt;bool" style="text;html=1;strokeColor=none;fillColor=none;align=left;verticalAlign=middle;spacingLeft=4;spacingRight=4;overflow=hidden;rotatable=0;points=[[0,0.5],[1,0.5]];portConstraint=eastwest;whiteSpace=wrap;" vertex="1" parent="AS3IExIb6AA8T86Rk0yP-2">
          <mxGeometry y="93" width="140" height="35" as="geometry" />
        </mxCell>
        <mxCell id="AS3IExIb6AA8T86Rk0yP-8" value="&lt;b&gt;Usine&lt;/b&gt;&lt;div&gt;&lt;br&gt;&lt;/div&gt;" style="swimlane;fontStyle=0;align=center;verticalAlign=top;childLayout=stackLayout;horizontal=1;startSize=25;horizontalStack=0;resizeParent=1;resizeParentMax=0;resizeLast=0;collapsible=0;marginBottom=0;html=1;whiteSpace=wrap;" vertex="1" parent="AS3IExIb6AA8T86Rk0yP-1">
          <mxGeometry x="226" y="53" width="226" height="197" as="geometry" />
        </mxCell>
        <mxCell id="AS3IExIb6AA8T86Rk0yP-9" value="attributs" style="text;html=1;strokeColor=none;fillColor=none;align=center;verticalAlign=middle;spacingLeft=4;spacingRight=4;overflow=hidden;rotatable=0;points=[[0,0.5],[1,0.5]];portConstraint=eastwest;whiteSpace=wrap;" vertex="1" parent="AS3IExIb6AA8T86Rk0yP-8">
          <mxGeometry y="25" width="226" height="20" as="geometry" />
        </mxCell>
        <mxCell id="AS3IExIb6AA8T86Rk0yP-10" value="- qualite : int" style="text;html=1;strokeColor=none;fillColor=none;align=left;verticalAlign=middle;spacingLeft=4;spacingRight=4;overflow=hidden;rotatable=0;points=[[0,0.5],[1,0.5]];portConstraint=eastwest;whiteSpace=wrap;" vertex="1" parent="AS3IExIb6AA8T86Rk0yP-8">
          <mxGeometry y="45" width="226" height="20" as="geometry" />
        </mxCell>
        <mxCell id="AS3IExIb6AA8T86Rk0yP-11" value="- matiereConsommee : int" style="text;html=1;strokeColor=none;fillColor=none;align=left;verticalAlign=middle;spacingLeft=4;spacingRight=4;overflow=hidden;rotatable=0;points=[[0,0.5],[1,0.5]];portConstraint=eastwest;whiteSpace=wrap;" vertex="1" parent="AS3IExIb6AA8T86Rk0yP-8">
          <mxGeometry y="65" width="226" height="20" as="geometry" />
        </mxCell>
        <mxCell id="AS3IExIb6AA8T86Rk0yP-12" value="- vitesseProduction : int" style="text;html=1;strokeColor=none;fillColor=none;align=left;verticalAlign=middle;spacingLeft=4;spacingRight=4;overflow=hidden;rotatable=0;points=[[0,0.5],[1,0.5]];portConstraint=eastwest;whiteSpace=wrap;" vertex="1" parent="AS3IExIb6AA8T86Rk0yP-8">
          <mxGeometry y="85" width="226" height="20" as="geometry" />
        </mxCell>
        <mxCell id="UJmZjogbtUFLE51L1w-g-2" value="- proprietaire : Joueur" style="text;html=1;strokeColor=none;fillColor=none;align=left;verticalAlign=middle;spacingLeft=4;spacingRight=4;overflow=hidden;rotatable=0;points=[[0,0.5],[1,0.5]];portConstraint=eastwest;whiteSpace=wrap;" vertex="1" parent="AS3IExIb6AA8T86Rk0yP-8">
          <mxGeometry y="105" width="226" height="20" as="geometry" />
        </mxCell>
        <mxCell id="AS3IExIb6AA8T86Rk0yP-13" value="" style="line;strokeWidth=1;fillColor=none;align=left;verticalAlign=middle;spacingTop=-1;spacingLeft=3;spacingRight=3;rotatable=0;labelPosition=right;points=[];portConstraint=eastwest;" vertex="1" parent="AS3IExIb6AA8T86Rk0yP-8">
          <mxGeometry y="125" width="226" height="8" as="geometry" />
        </mxCell>
        <mxCell id="AS3IExIb6AA8T86Rk0yP-14" value="opérations" style="text;html=1;strokeColor=none;fillColor=none;align=center;verticalAlign=middle;spacingLeft=4;spacingRight=4;overflow=hidden;rotatable=0;points=[[0,0.5],[1,0.5]];portConstraint=eastwest;whiteSpace=wrap;" vertex="1" parent="AS3IExIb6AA8T86Rk0yP-8">
          <mxGeometry y="133" width="226" height="20" as="geometry" />
        </mxCell>
        <mxCell id="AS3IExIb6AA8T86Rk0yP-43" value="+ AcheterAmelioration (amelioration : &lt;span style=&quot;white-space: pre;&quot;&gt;&#x9;&lt;/span&gt;&lt;span style=&quot;white-space: pre;&quot;&gt;&#x9;&lt;/span&gt;Amelioration) : void" style="text;html=1;strokeColor=none;fillColor=none;align=left;verticalAlign=middle;spacingLeft=4;spacingRight=4;overflow=hidden;rotatable=0;points=[[0,0.5],[1,0.5]];portConstraint=eastwest;whiteSpace=wrap;" vertex="1" parent="AS3IExIb6AA8T86Rk0yP-8">
          <mxGeometry y="153" width="226" height="44" as="geometry" />
        </mxCell>
        <mxCell id="AS3IExIb6AA8T86Rk0yP-15" value="&lt;b&gt;Amelioration&lt;/b&gt;" style="swimlane;fontStyle=0;align=center;verticalAlign=top;childLayout=stackLayout;horizontal=1;startSize=25;horizontalStack=0;resizeParent=1;resizeParentMax=0;resizeLast=0;collapsible=0;marginBottom=0;html=1;whiteSpace=wrap;" vertex="1" parent="AS3IExIb6AA8T86Rk0yP-1">
          <mxGeometry x="562" y="73" width="156" height="113" as="geometry" />
        </mxCell>
        <mxCell id="AS3IExIb6AA8T86Rk0yP-16" value="attributs" style="text;html=1;strokeColor=none;fillColor=none;align=center;verticalAlign=middle;spacingLeft=4;spacingRight=4;overflow=hidden;rotatable=0;points=[[0,0.5],[1,0.5]];portConstraint=eastwest;whiteSpace=wrap;" vertex="1" parent="AS3IExIb6AA8T86Rk0yP-15">
          <mxGeometry y="25" width="156" height="20" as="geometry" />
        </mxCell>
        <mxCell id="AS3IExIb6AA8T86Rk0yP-17" value="- amelioration : int" style="text;html=1;strokeColor=none;fillColor=none;align=left;verticalAlign=middle;spacingLeft=4;spacingRight=4;overflow=hidden;rotatable=0;points=[[0,0.5],[1,0.5]];portConstraint=eastwest;whiteSpace=wrap;" vertex="1" parent="AS3IExIb6AA8T86Rk0yP-15">
          <mxGeometry y="45" width="156" height="20" as="geometry" />
        </mxCell>
        <mxCell id="AS3IExIb6AA8T86Rk0yP-18" value="- tempsRecherche : int" style="text;html=1;strokeColor=none;fillColor=none;align=left;verticalAlign=middle;spacingLeft=4;spacingRight=4;overflow=hidden;rotatable=0;points=[[0,0.5],[1,0.5]];portConstraint=eastwest;whiteSpace=wrap;" vertex="1" parent="AS3IExIb6AA8T86Rk0yP-15">
          <mxGeometry y="65" width="156" height="20" as="geometry" />
        </mxCell>
        <mxCell id="AS3IExIb6AA8T86Rk0yP-19" value="" style="line;strokeWidth=1;fillColor=none;align=left;verticalAlign=middle;spacingTop=-1;spacingLeft=3;spacingRight=3;rotatable=0;labelPosition=right;points=[];portConstraint=eastwest;" vertex="1" parent="AS3IExIb6AA8T86Rk0yP-15">
          <mxGeometry y="85" width="156" height="8" as="geometry" />
        </mxCell>
        <mxCell id="AS3IExIb6AA8T86Rk0yP-20" value="opérations" style="text;html=1;strokeColor=none;fillColor=none;align=center;verticalAlign=middle;spacingLeft=4;spacingRight=4;overflow=hidden;rotatable=0;points=[[0,0.5],[1,0.5]];portConstraint=eastwest;whiteSpace=wrap;" vertex="1" parent="AS3IExIb6AA8T86Rk0yP-15">
          <mxGeometry y="93" width="156" height="20" as="geometry" />
        </mxCell>
        <mxCell id="AS3IExIb6AA8T86Rk0yP-44" style="edgeStyle=orthogonalEdgeStyle;rounded=0;orthogonalLoop=1;jettySize=auto;html=1;exitX=1;exitY=0.5;exitDx=0;exitDy=0;entryX=0;entryY=0.5;entryDx=0;entryDy=0;" edge="1" parent="AS3IExIb6AA8T86Rk0yP-1" source="AS3IExIb6AA8T86Rk0yP-11" target="AS3IExIb6AA8T86Rk0yP-17">
          <mxGeometry relative="1" as="geometry" />
        </mxCell>
        <mxCell id="AS3IExIb6AA8T86Rk0yP-21" style="edgeStyle=orthogonalEdgeStyle;rounded=0;orthogonalLoop=1;jettySize=auto;html=1;entryX=0;entryY=0.5;entryDx=0;entryDy=0;endArrow=diamondThin;endFill=0;endSize=20;exitX=1.004;exitY=0.157;exitDx=0;exitDy=0;exitPerimeter=0;" edge="1" parent="AS3IExIb6AA8T86Rk0yP-1" source="AS3IExIb6AA8T86Rk0yP-4" target="AS3IExIb6AA8T86Rk0yP-12">
          <mxGeometry relative="1" as="geometry">
            <mxPoint x="163" y="128" as="sourcePoint" />
            <Array as="points">
              <mxPoint x="164" y="100" />
              <mxPoint x="190" y="100" />
              <mxPoint x="190" y="148" />
            </Array>
          </mxGeometry>
        </mxCell>
      </root>
    </mxGraphModel>
  </diagram>
  <diagram id="_Dje1vJEM5GuiGssFUoq" name="Page-3">
    <mxGraphModel dx="1834" dy="836" grid="0" gridSize="10" guides="1" tooltips="1" connect="1" arrows="1" fold="1" page="0" pageScale="1" pageWidth="827" pageHeight="1169" math="0" shadow="0">
      <root>
        <mxCell id="0" />
        <mxCell id="1" parent="0" />
        <mxCell id="7ERslsSUui89dd15xHEt-1" value="&lt;b&gt;DCC : Usine trombone&lt;/b&gt;" style="shape=umlFrame;whiteSpace=wrap;html=1;pointerEvents=0;recursiveResize=0;container=1;collapsible=0;width=160;" vertex="1" parent="1">
          <mxGeometry x="-158" y="118" width="771" height="279" as="geometry" />
        </mxCell>
        <mxCell id="7ERslsSUui89dd15xHEt-2" value="&lt;b&gt;Joueur&lt;/b&gt;&lt;div&gt;&lt;br/&gt;&lt;/div&gt;" style="swimlane;fontStyle=0;align=center;verticalAlign=top;childLayout=stackLayout;horizontal=1;startSize=25;horizontalStack=0;resizeParent=1;resizeParentMax=0;resizeLast=0;collapsible=0;marginBottom=0;html=1;whiteSpace=wrap;" vertex="1" parent="7ERslsSUui89dd15xHEt-1">
          <mxGeometry x="23" y="53" width="140" height="128" as="geometry" />
        </mxCell>
        <mxCell id="7ERslsSUui89dd15xHEt-3" value="attributs" style="text;html=1;strokeColor=none;fillColor=none;align=center;verticalAlign=middle;spacingLeft=4;spacingRight=4;overflow=hidden;rotatable=0;points=[[0,0.5],[1,0.5]];portConstraint=eastwest;whiteSpace=wrap;" vertex="1" parent="7ERslsSUui89dd15xHEt-2">
          <mxGeometry y="25" width="140" height="20" as="geometry" />
        </mxCell>
        <mxCell id="7ERslsSUui89dd15xHEt-4" value="- argent : int" style="text;html=1;strokeColor=none;fillColor=none;align=left;verticalAlign=middle;spacingLeft=4;spacingRight=4;overflow=hidden;rotatable=0;points=[[0,0.5],[1,0.5]];portConstraint=eastwest;whiteSpace=wrap;" vertex="1" parent="7ERslsSUui89dd15xHEt-2">
          <mxGeometry y="45" width="140" height="20" as="geometry" />
        </mxCell>
        <mxCell id="7ERslsSUui89dd15xHEt-6" value="" style="line;strokeWidth=1;fillColor=none;align=left;verticalAlign=middle;spacingTop=-1;spacingLeft=3;spacingRight=3;rotatable=0;labelPosition=right;points=[];portConstraint=eastwest;" vertex="1" parent="7ERslsSUui89dd15xHEt-2">
          <mxGeometry y="65" width="140" height="8" as="geometry" />
        </mxCell>
        <mxCell id="7ERslsSUui89dd15xHEt-7" value="opérations" style="text;html=1;strokeColor=none;fillColor=none;align=center;verticalAlign=middle;spacingLeft=4;spacingRight=4;overflow=hidden;rotatable=0;points=[[0,0.5],[1,0.5]];portConstraint=eastwest;whiteSpace=wrap;" vertex="1" parent="7ERslsSUui89dd15xHEt-2">
          <mxGeometry y="73" width="140" height="20" as="geometry" />
        </mxCell>
        <mxCell id="E1HBF88anyFx6QnDkl7x-1" value="+ Payer (montant : int) : &lt;span style=&quot;white-space: pre;&quot;&gt;&#x9;&lt;/span&gt;&lt;span style=&quot;white-space: pre;&quot;&gt;&#x9;&lt;/span&gt;bool" style="text;html=1;strokeColor=none;fillColor=none;align=left;verticalAlign=middle;spacingLeft=4;spacingRight=4;overflow=hidden;rotatable=0;points=[[0,0.5],[1,0.5]];portConstraint=eastwest;whiteSpace=wrap;" vertex="1" parent="7ERslsSUui89dd15xHEt-2">
          <mxGeometry y="93" width="140" height="35" as="geometry" />
        </mxCell>
        <mxCell id="7ERslsSUui89dd15xHEt-8" value="&lt;b&gt;Usine&lt;/b&gt;&lt;div&gt;&lt;br&gt;&lt;/div&gt;" style="swimlane;fontStyle=0;align=center;verticalAlign=top;childLayout=stackLayout;horizontal=1;startSize=25;horizontalStack=0;resizeParent=1;resizeParentMax=0;resizeLast=0;collapsible=0;marginBottom=0;html=1;whiteSpace=wrap;" vertex="1" parent="7ERslsSUui89dd15xHEt-1">
          <mxGeometry x="226" y="53" width="228" height="217" as="geometry" />
        </mxCell>
        <mxCell id="7ERslsSUui89dd15xHEt-9" value="attributs" style="text;html=1;strokeColor=none;fillColor=none;align=center;verticalAlign=middle;spacingLeft=4;spacingRight=4;overflow=hidden;rotatable=0;points=[[0,0.5],[1,0.5]];portConstraint=eastwest;whiteSpace=wrap;" vertex="1" parent="7ERslsSUui89dd15xHEt-8">
          <mxGeometry y="25" width="228" height="20" as="geometry" />
        </mxCell>
        <mxCell id="7ERslsSUui89dd15xHEt-10" value="- qualite : int" style="text;html=1;strokeColor=none;fillColor=none;align=left;verticalAlign=middle;spacingLeft=4;spacingRight=4;overflow=hidden;rotatable=0;points=[[0,0.5],[1,0.5]];portConstraint=eastwest;whiteSpace=wrap;" vertex="1" parent="7ERslsSUui89dd15xHEt-8">
          <mxGeometry y="45" width="228" height="20" as="geometry" />
        </mxCell>
        <mxCell id="7ERslsSUui89dd15xHEt-11" value="- matiereConsommee : int" style="text;html=1;strokeColor=none;fillColor=none;align=left;verticalAlign=middle;spacingLeft=4;spacingRight=4;overflow=hidden;rotatable=0;points=[[0,0.5],[1,0.5]];portConstraint=eastwest;whiteSpace=wrap;" vertex="1" parent="7ERslsSUui89dd15xHEt-8">
          <mxGeometry y="65" width="228" height="20" as="geometry" />
        </mxCell>
        <mxCell id="7ERslsSUui89dd15xHEt-12" value="- vitesseProduction : int" style="text;html=1;strokeColor=none;fillColor=none;align=left;verticalAlign=middle;spacingLeft=4;spacingRight=4;overflow=hidden;rotatable=0;points=[[0,0.5],[1,0.5]];portConstraint=eastwest;whiteSpace=wrap;" vertex="1" parent="7ERslsSUui89dd15xHEt-8">
          <mxGeometry y="85" width="228" height="20" as="geometry" />
        </mxCell>
        <mxCell id="E1HBF88anyFx6QnDkl7x-2" value="- proprietaire : Joueur" style="text;html=1;strokeColor=none;fillColor=none;align=left;verticalAlign=middle;spacingLeft=4;spacingRight=4;overflow=hidden;rotatable=0;points=[[0,0.5],[1,0.5]];portConstraint=eastwest;whiteSpace=wrap;" vertex="1" parent="7ERslsSUui89dd15xHEt-8">
          <mxGeometry y="105" width="228" height="20" as="geometry" />
        </mxCell>
        <mxCell id="7ERslsSUui89dd15xHEt-13" value="" style="line;strokeWidth=1;fillColor=none;align=left;verticalAlign=middle;spacingTop=-1;spacingLeft=3;spacingRight=3;rotatable=0;labelPosition=right;points=[];portConstraint=eastwest;" vertex="1" parent="7ERslsSUui89dd15xHEt-8">
          <mxGeometry y="125" width="228" height="8" as="geometry" />
        </mxCell>
        <mxCell id="7ERslsSUui89dd15xHEt-14" value="opérations" style="text;html=1;strokeColor=none;fillColor=none;align=center;verticalAlign=middle;spacingLeft=4;spacingRight=4;overflow=hidden;rotatable=0;points=[[0,0.5],[1,0.5]];portConstraint=eastwest;whiteSpace=wrap;" vertex="1" parent="7ERslsSUui89dd15xHEt-8">
          <mxGeometry y="133" width="228" height="20" as="geometry" />
        </mxCell>
        <mxCell id="Im03JTT4-blO3m4cvI9--1" value="+ « create » Usine (proprietaire : Joueur)" style="text;html=1;strokeColor=none;fillColor=none;align=left;verticalAlign=middle;spacingLeft=4;spacingRight=4;overflow=hidden;rotatable=0;points=[[0,0.5],[1,0.5]];portConstraint=eastwest;whiteSpace=wrap;" vertex="1" parent="7ERslsSUui89dd15xHEt-8">
          <mxGeometry y="153" width="228" height="20" as="geometry" />
        </mxCell>
        <mxCell id="7ERslsSUui89dd15xHEt-15" value="+ AcheterAmelioration (amelioration : &lt;span style=&quot;white-space: pre;&quot;&gt;&#x9;&lt;/span&gt;&lt;span style=&quot;white-space: pre;&quot;&gt;&#x9;&lt;/span&gt;Amelioration) : void" style="text;html=1;strokeColor=none;fillColor=none;align=left;verticalAlign=middle;spacingLeft=4;spacingRight=4;overflow=hidden;rotatable=0;points=[[0,0.5],[1,0.5]];portConstraint=eastwest;whiteSpace=wrap;" vertex="1" parent="7ERslsSUui89dd15xHEt-8">
          <mxGeometry y="173" width="228" height="44" as="geometry" />
        </mxCell>
        <mxCell id="7ERslsSUui89dd15xHEt-16" value="&lt;b&gt;Amelioration&lt;/b&gt;" style="swimlane;fontStyle=0;align=center;verticalAlign=top;childLayout=stackLayout;horizontal=1;startSize=25;horizontalStack=0;resizeParent=1;resizeParentMax=0;resizeLast=0;collapsible=0;marginBottom=0;html=1;whiteSpace=wrap;" vertex="1" parent="7ERslsSUui89dd15xHEt-1">
          <mxGeometry x="562" y="73" width="156" height="173" as="geometry" />
        </mxCell>
        <mxCell id="7ERslsSUui89dd15xHEt-17" value="attributs" style="text;html=1;strokeColor=none;fillColor=none;align=center;verticalAlign=middle;spacingLeft=4;spacingRight=4;overflow=hidden;rotatable=0;points=[[0,0.5],[1,0.5]];portConstraint=eastwest;whiteSpace=wrap;" vertex="1" parent="7ERslsSUui89dd15xHEt-16">
          <mxGeometry y="25" width="156" height="20" as="geometry" />
        </mxCell>
        <mxCell id="7ERslsSUui89dd15xHEt-18" value="- amelioration : int" style="text;html=1;strokeColor=none;fillColor=none;align=left;verticalAlign=middle;spacingLeft=4;spacingRight=4;overflow=hidden;rotatable=0;points=[[0,0.5],[1,0.5]];portConstraint=eastwest;whiteSpace=wrap;" vertex="1" parent="7ERslsSUui89dd15xHEt-16">
          <mxGeometry y="45" width="156" height="20" as="geometry" />
        </mxCell>
        <mxCell id="7ERslsSUui89dd15xHEt-19" value="- tempsRecherche : int" style="text;html=1;strokeColor=none;fillColor=none;align=left;verticalAlign=middle;spacingLeft=4;spacingRight=4;overflow=hidden;rotatable=0;points=[[0,0.5],[1,0.5]];portConstraint=eastwest;whiteSpace=wrap;" vertex="1" parent="7ERslsSUui89dd15xHEt-16">
          <mxGeometry y="65" width="156" height="20" as="geometry" />
        </mxCell>
        <mxCell id="7ERslsSUui89dd15xHEt-24" value="- qualite : int" style="text;html=1;strokeColor=none;fillColor=none;align=left;verticalAlign=middle;spacingLeft=4;spacingRight=4;overflow=hidden;rotatable=0;points=[[0,0.5],[1,0.5]];portConstraint=eastwest;whiteSpace=wrap;" vertex="1" parent="7ERslsSUui89dd15xHEt-16">
          <mxGeometry y="85" width="156" height="20" as="geometry" />
        </mxCell>
        <mxCell id="7ERslsSUui89dd15xHEt-25" value="- matiereConsommee : int" style="text;html=1;strokeColor=none;fillColor=none;align=left;verticalAlign=middle;spacingLeft=4;spacingRight=4;overflow=hidden;rotatable=0;points=[[0,0.5],[1,0.5]];portConstraint=eastwest;whiteSpace=wrap;" vertex="1" parent="7ERslsSUui89dd15xHEt-16">
          <mxGeometry y="105" width="156" height="20" as="geometry" />
        </mxCell>
        <mxCell id="7ERslsSUui89dd15xHEt-26" value="- vitesseProduction : int" style="text;html=1;strokeColor=none;fillColor=none;align=left;verticalAlign=middle;spacingLeft=4;spacingRight=4;overflow=hidden;rotatable=0;points=[[0,0.5],[1,0.5]];portConstraint=eastwest;whiteSpace=wrap;" vertex="1" parent="7ERslsSUui89dd15xHEt-16">
          <mxGeometry y="125" width="156" height="20" as="geometry" />
        </mxCell>
        <mxCell id="7ERslsSUui89dd15xHEt-20" value="" style="line;strokeWidth=1;fillColor=none;align=left;verticalAlign=middle;spacingTop=-1;spacingLeft=3;spacingRight=3;rotatable=0;labelPosition=right;points=[];portConstraint=eastwest;" vertex="1" parent="7ERslsSUui89dd15xHEt-16">
          <mxGeometry y="145" width="156" height="8" as="geometry" />
        </mxCell>
        <mxCell id="7ERslsSUui89dd15xHEt-21" value="opérations" style="text;html=1;strokeColor=none;fillColor=none;align=center;verticalAlign=middle;spacingLeft=4;spacingRight=4;overflow=hidden;rotatable=0;points=[[0,0.5],[1,0.5]];portConstraint=eastwest;whiteSpace=wrap;" vertex="1" parent="7ERslsSUui89dd15xHEt-16">
          <mxGeometry y="153" width="156" height="20" as="geometry" />
        </mxCell>
        <mxCell id="7ERslsSUui89dd15xHEt-23" style="edgeStyle=orthogonalEdgeStyle;rounded=0;orthogonalLoop=1;jettySize=auto;html=1;exitX=1;exitY=0.5;exitDx=0;exitDy=0;entryX=0;entryY=0.5;entryDx=0;entryDy=0;" edge="1" parent="7ERslsSUui89dd15xHEt-1" source="7ERslsSUui89dd15xHEt-11" target="7ERslsSUui89dd15xHEt-18">
          <mxGeometry relative="1" as="geometry" />
        </mxCell>
        <mxCell id="7ERslsSUui89dd15xHEt-22" style="edgeStyle=orthogonalEdgeStyle;rounded=0;orthogonalLoop=1;jettySize=auto;html=1;exitX=1;exitY=0.5;exitDx=0;exitDy=0;entryX=0;entryY=0.5;entryDx=0;entryDy=0;endArrow=diamondThin;endFill=0;endSize=20;" edge="1" parent="7ERslsSUui89dd15xHEt-1" source="7ERslsSUui89dd15xHEt-4" target="E1HBF88anyFx6QnDkl7x-2">
          <mxGeometry relative="1" as="geometry" />
        </mxCell>
      </root>
    </mxGraphModel>
  </diagram>
  <diagram id="4YgBEhMR4xV-o12uJDV4" name="Page-4">
    <mxGraphModel dx="1595" dy="1097" grid="0" gridSize="10" guides="1" tooltips="1" connect="1" arrows="1" fold="1" page="0" pageScale="1" pageWidth="827" pageHeight="1169" math="0" shadow="0">
      <root>
        <mxCell id="0" />
        <mxCell id="1" parent="0" />
        <mxCell id="m0RzSoXNMWavUTcF55iz-1" value="&lt;b&gt;DCC : Usine trombone&lt;/b&gt;" style="shape=umlFrame;whiteSpace=wrap;html=1;pointerEvents=0;recursiveResize=0;container=1;collapsible=0;width=160;" vertex="1" parent="1">
          <mxGeometry x="-240" y="-60" width="1005" height="560" as="geometry" />
        </mxCell>
        <mxCell id="m0RzSoXNMWavUTcF55iz-2" value="&lt;b&gt;Joueur&lt;/b&gt;&lt;div&gt;&lt;br/&gt;&lt;/div&gt;" style="swimlane;fontStyle=0;align=center;verticalAlign=top;childLayout=stackLayout;horizontal=1;startSize=25;horizontalStack=0;resizeParent=1;resizeParentMax=0;resizeLast=0;collapsible=0;marginBottom=0;html=1;whiteSpace=wrap;" vertex="1" parent="m0RzSoXNMWavUTcF55iz-1">
          <mxGeometry x="23" y="53" width="140" height="128" as="geometry" />
        </mxCell>
        <mxCell id="m0RzSoXNMWavUTcF55iz-3" value="attributs" style="text;html=1;strokeColor=none;fillColor=none;align=center;verticalAlign=middle;spacingLeft=4;spacingRight=4;overflow=hidden;rotatable=0;points=[[0,0.5],[1,0.5]];portConstraint=eastwest;whiteSpace=wrap;" vertex="1" parent="m0RzSoXNMWavUTcF55iz-2">
          <mxGeometry y="25" width="140" height="20" as="geometry" />
        </mxCell>
        <mxCell id="m0RzSoXNMWavUTcF55iz-4" value="- argent : int" style="text;html=1;strokeColor=none;fillColor=none;align=left;verticalAlign=middle;spacingLeft=4;spacingRight=4;overflow=hidden;rotatable=0;points=[[0,0.5],[1,0.5]];portConstraint=eastwest;whiteSpace=wrap;" vertex="1" parent="m0RzSoXNMWavUTcF55iz-2">
          <mxGeometry y="45" width="140" height="20" as="geometry" />
        </mxCell>
        <mxCell id="m0RzSoXNMWavUTcF55iz-6" value="" style="line;strokeWidth=1;fillColor=none;align=left;verticalAlign=middle;spacingTop=-1;spacingLeft=3;spacingRight=3;rotatable=0;labelPosition=right;points=[];portConstraint=eastwest;" vertex="1" parent="m0RzSoXNMWavUTcF55iz-2">
          <mxGeometry y="65" width="140" height="8" as="geometry" />
        </mxCell>
        <mxCell id="m0RzSoXNMWavUTcF55iz-7" value="opérations" style="text;html=1;strokeColor=none;fillColor=none;align=center;verticalAlign=middle;spacingLeft=4;spacingRight=4;overflow=hidden;rotatable=0;points=[[0,0.5],[1,0.5]];portConstraint=eastwest;whiteSpace=wrap;" vertex="1" parent="m0RzSoXNMWavUTcF55iz-2">
          <mxGeometry y="73" width="140" height="20" as="geometry" />
        </mxCell>
        <mxCell id="aAleVQ4gXbZwEfEE3Xit-1" value="+ Payer (montant : int) : &lt;span style=&quot;white-space: pre;&quot;&gt;&#x9;&lt;/span&gt;&lt;span style=&quot;white-space: pre;&quot;&gt;&#x9;&lt;/span&gt;bool" style="text;html=1;strokeColor=none;fillColor=none;align=left;verticalAlign=middle;spacingLeft=4;spacingRight=4;overflow=hidden;rotatable=0;points=[[0,0.5],[1,0.5]];portConstraint=eastwest;whiteSpace=wrap;" vertex="1" parent="m0RzSoXNMWavUTcF55iz-2">
          <mxGeometry y="93" width="140" height="35" as="geometry" />
        </mxCell>
        <mxCell id="m0RzSoXNMWavUTcF55iz-8" value="&lt;b&gt;Usine&lt;/b&gt;&lt;div&gt;&lt;br&gt;&lt;/div&gt;" style="swimlane;fontStyle=0;align=center;verticalAlign=top;childLayout=stackLayout;horizontal=1;startSize=25;horizontalStack=0;resizeParent=1;resizeParentMax=0;resizeLast=0;collapsible=0;marginBottom=0;html=1;whiteSpace=wrap;" vertex="1" parent="m0RzSoXNMWavUTcF55iz-1">
          <mxGeometry x="226" y="53" width="229" height="217" as="geometry" />
        </mxCell>
        <mxCell id="m0RzSoXNMWavUTcF55iz-9" value="attributs" style="text;html=1;strokeColor=none;fillColor=none;align=center;verticalAlign=middle;spacingLeft=4;spacingRight=4;overflow=hidden;rotatable=0;points=[[0,0.5],[1,0.5]];portConstraint=eastwest;whiteSpace=wrap;" vertex="1" parent="m0RzSoXNMWavUTcF55iz-8">
          <mxGeometry y="25" width="229" height="20" as="geometry" />
        </mxCell>
        <mxCell id="m0RzSoXNMWavUTcF55iz-10" value="- qualite : int" style="text;html=1;strokeColor=none;fillColor=none;align=left;verticalAlign=middle;spacingLeft=4;spacingRight=4;overflow=hidden;rotatable=0;points=[[0,0.5],[1,0.5]];portConstraint=eastwest;whiteSpace=wrap;" vertex="1" parent="m0RzSoXNMWavUTcF55iz-8">
          <mxGeometry y="45" width="229" height="20" as="geometry" />
        </mxCell>
        <mxCell id="m0RzSoXNMWavUTcF55iz-11" value="- matiereConsommee : int" style="text;html=1;strokeColor=none;fillColor=none;align=left;verticalAlign=middle;spacingLeft=4;spacingRight=4;overflow=hidden;rotatable=0;points=[[0,0.5],[1,0.5]];portConstraint=eastwest;whiteSpace=wrap;" vertex="1" parent="m0RzSoXNMWavUTcF55iz-8">
          <mxGeometry y="65" width="229" height="20" as="geometry" />
        </mxCell>
        <mxCell id="aAleVQ4gXbZwEfEE3Xit-2" value="- proprietaire : Joueur" style="text;html=1;strokeColor=none;fillColor=none;align=left;verticalAlign=middle;spacingLeft=4;spacingRight=4;overflow=hidden;rotatable=0;points=[[0,0.5],[1,0.5]];portConstraint=eastwest;whiteSpace=wrap;" vertex="1" parent="m0RzSoXNMWavUTcF55iz-8">
          <mxGeometry y="85" width="229" height="20" as="geometry" />
        </mxCell>
        <mxCell id="m0RzSoXNMWavUTcF55iz-12" value="- vitesseProduction : int" style="text;html=1;strokeColor=none;fillColor=none;align=left;verticalAlign=middle;spacingLeft=4;spacingRight=4;overflow=hidden;rotatable=0;points=[[0,0.5],[1,0.5]];portConstraint=eastwest;whiteSpace=wrap;" vertex="1" parent="m0RzSoXNMWavUTcF55iz-8">
          <mxGeometry y="105" width="229" height="20" as="geometry" />
        </mxCell>
        <mxCell id="m0RzSoXNMWavUTcF55iz-13" value="" style="line;strokeWidth=1;fillColor=none;align=left;verticalAlign=middle;spacingTop=-1;spacingLeft=3;spacingRight=3;rotatable=0;labelPosition=right;points=[];portConstraint=eastwest;" vertex="1" parent="m0RzSoXNMWavUTcF55iz-8">
          <mxGeometry y="125" width="229" height="8" as="geometry" />
        </mxCell>
        <mxCell id="m0RzSoXNMWavUTcF55iz-14" value="opérations" style="text;html=1;strokeColor=none;fillColor=none;align=center;verticalAlign=middle;spacingLeft=4;spacingRight=4;overflow=hidden;rotatable=0;points=[[0,0.5],[1,0.5]];portConstraint=eastwest;whiteSpace=wrap;" vertex="1" parent="m0RzSoXNMWavUTcF55iz-8">
          <mxGeometry y="133" width="229" height="20" as="geometry" />
        </mxCell>
        <mxCell id="NUZJB0ZFLt4BSRVoaurz-1" value="+ « create » Usine (proprietaire : Joueur)" style="text;html=1;strokeColor=none;fillColor=none;align=left;verticalAlign=middle;spacingLeft=4;spacingRight=4;overflow=hidden;rotatable=0;points=[[0,0.5],[1,0.5]];portConstraint=eastwest;whiteSpace=wrap;" vertex="1" parent="m0RzSoXNMWavUTcF55iz-8">
          <mxGeometry y="153" width="229" height="20" as="geometry" />
        </mxCell>
        <mxCell id="m0RzSoXNMWavUTcF55iz-15" value="+ AcheterAmelioration (amelioration : &lt;span style=&quot;white-space: pre;&quot;&gt;&#x9;&lt;/span&gt;&lt;span style=&quot;white-space: pre;&quot;&gt;&#x9;&lt;/span&gt;Amelioration) : void" style="text;html=1;strokeColor=none;fillColor=none;align=left;verticalAlign=middle;spacingLeft=4;spacingRight=4;overflow=hidden;rotatable=0;points=[[0,0.5],[1,0.5]];portConstraint=eastwest;whiteSpace=wrap;" vertex="1" parent="m0RzSoXNMWavUTcF55iz-8">
          <mxGeometry y="173" width="229" height="44" as="geometry" />
        </mxCell>
        <mxCell id="m0RzSoXNMWavUTcF55iz-16" value="&lt;b&gt;Amelioration&lt;/b&gt;" style="swimlane;fontStyle=0;align=center;verticalAlign=top;childLayout=stackLayout;horizontal=1;startSize=25;horizontalStack=0;resizeParent=1;resizeParentMax=0;resizeLast=0;collapsible=0;marginBottom=0;html=1;whiteSpace=wrap;" vertex="1" parent="m0RzSoXNMWavUTcF55iz-1">
          <mxGeometry x="546" y="51" width="188" height="177" as="geometry" />
        </mxCell>
        <mxCell id="m0RzSoXNMWavUTcF55iz-17" value="attributs" style="text;html=1;strokeColor=none;fillColor=none;align=center;verticalAlign=middle;spacingLeft=4;spacingRight=4;overflow=hidden;rotatable=0;points=[[0,0.5],[1,0.5]];portConstraint=eastwest;whiteSpace=wrap;" vertex="1" parent="m0RzSoXNMWavUTcF55iz-16">
          <mxGeometry y="25" width="188" height="20" as="geometry" />
        </mxCell>
        <mxCell id="m0RzSoXNMWavUTcF55iz-18" value="- amelioration : int" style="text;html=1;strokeColor=none;fillColor=none;align=left;verticalAlign=middle;spacingLeft=4;spacingRight=4;overflow=hidden;rotatable=0;points=[[0,0.5],[1,0.5]];portConstraint=eastwest;whiteSpace=wrap;" vertex="1" parent="m0RzSoXNMWavUTcF55iz-16">
          <mxGeometry y="45" width="188" height="20" as="geometry" />
        </mxCell>
        <mxCell id="m0RzSoXNMWavUTcF55iz-19" value="- tempsRecherche : int" style="text;html=1;strokeColor=none;fillColor=none;align=left;verticalAlign=middle;spacingLeft=4;spacingRight=4;overflow=hidden;rotatable=0;points=[[0,0.5],[1,0.5]];portConstraint=eastwest;whiteSpace=wrap;" vertex="1" parent="m0RzSoXNMWavUTcF55iz-16">
          <mxGeometry y="65" width="188" height="20" as="geometry" />
        </mxCell>
        <mxCell id="m0RzSoXNMWavUTcF55iz-56" value="- effets : List&amp;lt;EffetAmelioration&amp;gt;" style="text;html=1;strokeColor=none;fillColor=none;align=left;verticalAlign=middle;spacingLeft=4;spacingRight=4;overflow=hidden;rotatable=0;points=[[0,0.5],[1,0.5]];portConstraint=eastwest;whiteSpace=wrap;" vertex="1" parent="m0RzSoXNMWavUTcF55iz-16">
          <mxGeometry y="85" width="188" height="20" as="geometry" />
        </mxCell>
        <mxCell id="m0RzSoXNMWavUTcF55iz-20" value="" style="line;strokeWidth=1;fillColor=none;align=left;verticalAlign=middle;spacingTop=-1;spacingLeft=3;spacingRight=3;rotatable=0;labelPosition=right;points=[];portConstraint=eastwest;" vertex="1" parent="m0RzSoXNMWavUTcF55iz-16">
          <mxGeometry y="105" width="188" height="8" as="geometry" />
        </mxCell>
        <mxCell id="m0RzSoXNMWavUTcF55iz-21" value="opérations" style="text;html=1;strokeColor=none;fillColor=none;align=center;verticalAlign=middle;spacingLeft=4;spacingRight=4;overflow=hidden;rotatable=0;points=[[0,0.5],[1,0.5]];portConstraint=eastwest;whiteSpace=wrap;" vertex="1" parent="m0RzSoXNMWavUTcF55iz-16">
          <mxGeometry y="113" width="188" height="20" as="geometry" />
        </mxCell>
        <mxCell id="JZVEe01M-Ap6mudZUziK-1" value="+ AppliquerAmelioration (usine : &lt;span style=&quot;white-space: pre;&quot;&gt;&#x9;&lt;/span&gt;&lt;span style=&quot;white-space: pre;&quot;&gt;&#x9;&lt;/span&gt;Usine) : void" style="text;html=1;strokeColor=none;fillColor=none;align=left;verticalAlign=middle;spacingLeft=4;spacingRight=4;overflow=hidden;rotatable=0;points=[[0,0.5],[1,0.5]];portConstraint=eastwest;whiteSpace=wrap;" vertex="1" parent="m0RzSoXNMWavUTcF55iz-16">
          <mxGeometry y="133" width="188" height="44" as="geometry" />
        </mxCell>
        <mxCell id="m0RzSoXNMWavUTcF55iz-22" style="edgeStyle=orthogonalEdgeStyle;rounded=0;orthogonalLoop=1;jettySize=auto;html=1;exitX=1;exitY=0.5;exitDx=0;exitDy=0;endArrow=diamondThin;endFill=0;endSize=20;entryX=0;entryY=0.5;entryDx=0;entryDy=0;" edge="1" parent="m0RzSoXNMWavUTcF55iz-1" source="m0RzSoXNMWavUTcF55iz-4" target="aAleVQ4gXbZwEfEE3Xit-2">
          <mxGeometry relative="1" as="geometry">
            <mxPoint x="188" y="-114" as="targetPoint" />
          </mxGeometry>
        </mxCell>
        <mxCell id="m0RzSoXNMWavUTcF55iz-23" style="edgeStyle=orthogonalEdgeStyle;rounded=0;orthogonalLoop=1;jettySize=auto;html=1;exitX=1;exitY=0.5;exitDx=0;exitDy=0;entryX=0;entryY=0.5;entryDx=0;entryDy=0;" edge="1" parent="m0RzSoXNMWavUTcF55iz-1" source="m0RzSoXNMWavUTcF55iz-11" target="m0RzSoXNMWavUTcF55iz-18">
          <mxGeometry relative="1" as="geometry" />
        </mxCell>
        <mxCell id="m0RzSoXNMWavUTcF55iz-24" value="&lt;b&gt;&lt;i&gt;EffetAmelioration&lt;/i&gt;&lt;/b&gt;" style="swimlane;fontStyle=0;align=center;verticalAlign=top;childLayout=stackLayout;horizontal=1;startSize=25;horizontalStack=0;resizeParent=1;resizeParentMax=0;resizeLast=0;collapsible=0;marginBottom=0;html=1;whiteSpace=wrap;" vertex="1" parent="m0RzSoXNMWavUTcF55iz-1">
          <mxGeometry x="535" y="257" width="210" height="113" as="geometry" />
        </mxCell>
        <mxCell id="m0RzSoXNMWavUTcF55iz-25" value="attributs" style="text;html=1;strokeColor=none;fillColor=none;align=center;verticalAlign=middle;spacingLeft=4;spacingRight=4;overflow=hidden;rotatable=0;points=[[0,0.5],[1,0.5]];portConstraint=eastwest;whiteSpace=wrap;" vertex="1" parent="m0RzSoXNMWavUTcF55iz-24">
          <mxGeometry y="25" width="210" height="20" as="geometry" />
        </mxCell>
        <mxCell id="m0RzSoXNMWavUTcF55iz-27" value="# valeur : int" style="text;html=1;strokeColor=none;fillColor=none;align=left;verticalAlign=middle;spacingLeft=4;spacingRight=4;overflow=hidden;rotatable=0;points=[[0,0.5],[1,0.5]];portConstraint=eastwest;whiteSpace=wrap;" vertex="1" parent="m0RzSoXNMWavUTcF55iz-24">
          <mxGeometry y="45" width="210" height="20" as="geometry" />
        </mxCell>
        <mxCell id="m0RzSoXNMWavUTcF55iz-28" value="" style="line;strokeWidth=1;fillColor=none;align=left;verticalAlign=middle;spacingTop=-1;spacingLeft=3;spacingRight=3;rotatable=0;labelPosition=right;points=[];portConstraint=eastwest;" vertex="1" parent="m0RzSoXNMWavUTcF55iz-24">
          <mxGeometry y="65" width="210" height="8" as="geometry" />
        </mxCell>
        <mxCell id="m0RzSoXNMWavUTcF55iz-29" value="opérations" style="text;html=1;strokeColor=none;fillColor=none;align=center;verticalAlign=middle;spacingLeft=4;spacingRight=4;overflow=hidden;rotatable=0;points=[[0,0.5],[1,0.5]];portConstraint=eastwest;whiteSpace=wrap;" vertex="1" parent="m0RzSoXNMWavUTcF55iz-24">
          <mxGeometry y="73" width="210" height="20" as="geometry" />
        </mxCell>
        <mxCell id="m0RzSoXNMWavUTcF55iz-30" value="&lt;i&gt;+ AppliquerEffet(usine : Usine) : void&lt;/i&gt;" style="text;html=1;strokeColor=none;fillColor=none;align=left;verticalAlign=middle;spacingLeft=4;spacingRight=4;overflow=hidden;rotatable=0;points=[[0,0.5],[1,0.5]];portConstraint=eastwest;whiteSpace=wrap;" vertex="1" parent="m0RzSoXNMWavUTcF55iz-24">
          <mxGeometry y="93" width="210" height="20" as="geometry" />
        </mxCell>
        <mxCell id="m0RzSoXNMWavUTcF55iz-47" style="edgeStyle=orthogonalEdgeStyle;rounded=0;orthogonalLoop=1;jettySize=auto;html=1;exitX=0.5;exitY=0;exitDx=0;exitDy=0;endArrow=block;endFill=0;endSize=11;" edge="1" parent="m0RzSoXNMWavUTcF55iz-1" source="m0RzSoXNMWavUTcF55iz-31" target="m0RzSoXNMWavUTcF55iz-24">
          <mxGeometry relative="1" as="geometry" />
        </mxCell>
        <mxCell id="m0RzSoXNMWavUTcF55iz-31" value="&lt;b&gt;AmeliorationQualite&lt;/b&gt;" style="swimlane;fontStyle=0;align=center;verticalAlign=top;childLayout=stackLayout;horizontal=1;startSize=25;horizontalStack=0;resizeParent=1;resizeParentMax=0;resizeLast=0;collapsible=0;marginBottom=0;html=1;whiteSpace=wrap;" vertex="1" parent="m0RzSoXNMWavUTcF55iz-1">
          <mxGeometry x="300.5" y="427" width="209" height="110" as="geometry" />
        </mxCell>
        <mxCell id="m0RzSoXNMWavUTcF55iz-32" value="attributs" style="text;html=1;strokeColor=none;fillColor=none;align=center;verticalAlign=middle;spacingLeft=4;spacingRight=4;overflow=hidden;rotatable=0;points=[[0,0.5],[1,0.5]];portConstraint=eastwest;whiteSpace=wrap;" vertex="1" parent="m0RzSoXNMWavUTcF55iz-31">
          <mxGeometry y="25" width="209" height="20" as="geometry" />
        </mxCell>
        <mxCell id="m0RzSoXNMWavUTcF55iz-34" value="" style="line;strokeWidth=1;fillColor=none;align=left;verticalAlign=middle;spacingTop=-1;spacingLeft=3;spacingRight=3;rotatable=0;labelPosition=right;points=[];portConstraint=eastwest;" vertex="1" parent="m0RzSoXNMWavUTcF55iz-31">
          <mxGeometry y="45" width="209" height="8" as="geometry" />
        </mxCell>
        <mxCell id="m0RzSoXNMWavUTcF55iz-35" value="opérations" style="text;html=1;strokeColor=none;fillColor=none;align=center;verticalAlign=middle;spacingLeft=4;spacingRight=4;overflow=hidden;rotatable=0;points=[[0,0.5],[1,0.5]];portConstraint=eastwest;whiteSpace=wrap;" vertex="1" parent="m0RzSoXNMWavUTcF55iz-31">
          <mxGeometry y="53" width="209" height="20" as="geometry" />
        </mxCell>
        <mxCell id="m0RzSoXNMWavUTcF55iz-36" value="&lt;span&gt;+ {redefines} AppliquerEffet(usine : &lt;span style=&quot;white-space: pre;&quot;&gt;&#x9;&lt;/span&gt;&lt;span style=&quot;white-space: pre;&quot;&gt;&#x9;&lt;/span&gt;Usine) : void&lt;/span&gt;" style="text;html=1;strokeColor=none;fillColor=none;align=left;verticalAlign=middle;spacingLeft=4;spacingRight=4;overflow=hidden;rotatable=0;points=[[0,0.5],[1,0.5]];portConstraint=eastwest;whiteSpace=wrap;fontStyle=0" vertex="1" parent="m0RzSoXNMWavUTcF55iz-31">
          <mxGeometry y="73" width="209" height="37" as="geometry" />
        </mxCell>
        <mxCell id="m0RzSoXNMWavUTcF55iz-37" value="&lt;b&gt;AmeliorationMatiereConsommee&lt;/b&gt;" style="swimlane;fontStyle=0;align=center;verticalAlign=top;childLayout=stackLayout;horizontal=1;startSize=25;horizontalStack=0;resizeParent=1;resizeParentMax=0;resizeLast=0;collapsible=0;marginBottom=0;html=1;whiteSpace=wrap;" vertex="1" parent="m0RzSoXNMWavUTcF55iz-1">
          <mxGeometry x="535.5" y="427" width="209" height="110" as="geometry" />
        </mxCell>
        <mxCell id="m0RzSoXNMWavUTcF55iz-38" value="attributs" style="text;html=1;strokeColor=none;fillColor=none;align=center;verticalAlign=middle;spacingLeft=4;spacingRight=4;overflow=hidden;rotatable=0;points=[[0,0.5],[1,0.5]];portConstraint=eastwest;whiteSpace=wrap;" vertex="1" parent="m0RzSoXNMWavUTcF55iz-37">
          <mxGeometry y="25" width="209" height="20" as="geometry" />
        </mxCell>
        <mxCell id="m0RzSoXNMWavUTcF55iz-39" value="" style="line;strokeWidth=1;fillColor=none;align=left;verticalAlign=middle;spacingTop=-1;spacingLeft=3;spacingRight=3;rotatable=0;labelPosition=right;points=[];portConstraint=eastwest;" vertex="1" parent="m0RzSoXNMWavUTcF55iz-37">
          <mxGeometry y="45" width="209" height="8" as="geometry" />
        </mxCell>
        <mxCell id="m0RzSoXNMWavUTcF55iz-40" value="opérations" style="text;html=1;strokeColor=none;fillColor=none;align=center;verticalAlign=middle;spacingLeft=4;spacingRight=4;overflow=hidden;rotatable=0;points=[[0,0.5],[1,0.5]];portConstraint=eastwest;whiteSpace=wrap;" vertex="1" parent="m0RzSoXNMWavUTcF55iz-37">
          <mxGeometry y="53" width="209" height="20" as="geometry" />
        </mxCell>
        <mxCell id="m0RzSoXNMWavUTcF55iz-41" value="&lt;span&gt;+ {redefines} AppliquerEffet(usine : &lt;span style=&quot;white-space: pre;&quot;&gt;&#x9;&lt;/span&gt;&lt;span style=&quot;white-space: pre;&quot;&gt;&#x9;&lt;/span&gt;Usine) : void&lt;/span&gt;" style="text;html=1;strokeColor=none;fillColor=none;align=left;verticalAlign=middle;spacingLeft=4;spacingRight=4;overflow=hidden;rotatable=0;points=[[0,0.5],[1,0.5]];portConstraint=eastwest;whiteSpace=wrap;fontStyle=0" vertex="1" parent="m0RzSoXNMWavUTcF55iz-37">
          <mxGeometry y="73" width="209" height="37" as="geometry" />
        </mxCell>
        <mxCell id="m0RzSoXNMWavUTcF55iz-42" value="&lt;b&gt;AmeliorationVitesseProduction&lt;/b&gt;" style="swimlane;fontStyle=0;align=center;verticalAlign=top;childLayout=stackLayout;horizontal=1;startSize=25;horizontalStack=0;resizeParent=1;resizeParentMax=0;resizeLast=0;collapsible=0;marginBottom=0;html=1;whiteSpace=wrap;" vertex="1" parent="m0RzSoXNMWavUTcF55iz-1">
          <mxGeometry x="770.5" y="427" width="209" height="110" as="geometry" />
        </mxCell>
        <mxCell id="m0RzSoXNMWavUTcF55iz-43" value="attributs" style="text;html=1;strokeColor=none;fillColor=none;align=center;verticalAlign=middle;spacingLeft=4;spacingRight=4;overflow=hidden;rotatable=0;points=[[0,0.5],[1,0.5]];portConstraint=eastwest;whiteSpace=wrap;" vertex="1" parent="m0RzSoXNMWavUTcF55iz-42">
          <mxGeometry y="25" width="209" height="20" as="geometry" />
        </mxCell>
        <mxCell id="m0RzSoXNMWavUTcF55iz-44" value="" style="line;strokeWidth=1;fillColor=none;align=left;verticalAlign=middle;spacingTop=-1;spacingLeft=3;spacingRight=3;rotatable=0;labelPosition=right;points=[];portConstraint=eastwest;" vertex="1" parent="m0RzSoXNMWavUTcF55iz-42">
          <mxGeometry y="45" width="209" height="8" as="geometry" />
        </mxCell>
        <mxCell id="m0RzSoXNMWavUTcF55iz-45" value="opérations" style="text;html=1;strokeColor=none;fillColor=none;align=center;verticalAlign=middle;spacingLeft=4;spacingRight=4;overflow=hidden;rotatable=0;points=[[0,0.5],[1,0.5]];portConstraint=eastwest;whiteSpace=wrap;" vertex="1" parent="m0RzSoXNMWavUTcF55iz-42">
          <mxGeometry y="53" width="209" height="20" as="geometry" />
        </mxCell>
        <mxCell id="m0RzSoXNMWavUTcF55iz-46" value="&lt;span&gt;+ {redefines} AppliquerEffet(usine : &lt;span style=&quot;white-space: pre;&quot;&gt;&#x9;&lt;/span&gt;&lt;span style=&quot;white-space: pre;&quot;&gt;&#x9;&lt;/span&gt;Usine) : void&lt;/span&gt;" style="text;html=1;strokeColor=none;fillColor=none;align=left;verticalAlign=middle;spacingLeft=4;spacingRight=4;overflow=hidden;rotatable=0;points=[[0,0.5],[1,0.5]];portConstraint=eastwest;whiteSpace=wrap;fontStyle=0" vertex="1" parent="m0RzSoXNMWavUTcF55iz-42">
          <mxGeometry y="73" width="209" height="37" as="geometry" />
        </mxCell>
        <mxCell id="m0RzSoXNMWavUTcF55iz-49" style="edgeStyle=orthogonalEdgeStyle;rounded=0;orthogonalLoop=1;jettySize=auto;html=1;exitX=0.5;exitY=0;exitDx=0;exitDy=0;endArrow=block;endFill=0;endSize=11;" edge="1" parent="m0RzSoXNMWavUTcF55iz-1" source="m0RzSoXNMWavUTcF55iz-37" target="m0RzSoXNMWavUTcF55iz-24">
          <mxGeometry relative="1" as="geometry">
            <mxPoint x="415" y="437" as="sourcePoint" />
            <mxPoint x="650" y="380" as="targetPoint" />
          </mxGeometry>
        </mxCell>
        <mxCell id="m0RzSoXNMWavUTcF55iz-51" style="edgeStyle=orthogonalEdgeStyle;rounded=0;orthogonalLoop=1;jettySize=auto;html=1;exitX=0.5;exitY=0;exitDx=0;exitDy=0;endArrow=block;endFill=0;endSize=11;" edge="1" parent="m0RzSoXNMWavUTcF55iz-1" source="m0RzSoXNMWavUTcF55iz-42" target="m0RzSoXNMWavUTcF55iz-24">
          <mxGeometry relative="1" as="geometry">
            <mxPoint x="415" y="437" as="sourcePoint" />
            <mxPoint x="650" y="380" as="targetPoint" />
          </mxGeometry>
        </mxCell>
        <mxCell id="m0RzSoXNMWavUTcF55iz-53" style="edgeStyle=orthogonalEdgeStyle;rounded=0;orthogonalLoop=1;jettySize=auto;html=1;exitX=1;exitY=0.5;exitDx=0;exitDy=0;entryX=1;entryY=0.5;entryDx=0;entryDy=0;endArrow=diamondThin;endFill=0;endSize=20;" edge="1" parent="m0RzSoXNMWavUTcF55iz-1" source="m0RzSoXNMWavUTcF55iz-27" target="m0RzSoXNMWavUTcF55iz-18">
          <mxGeometry relative="1" as="geometry">
            <mxPoint x="236" y="138" as="sourcePoint" />
            <mxPoint x="173" y="118" as="targetPoint" />
            <Array as="points">
              <mxPoint x="814" y="312" />
              <mxPoint x="814" y="106" />
            </Array>
          </mxGeometry>
        </mxCell>
        <mxCell id="m0RzSoXNMWavUTcF55iz-54" value="0..n" style="edgeLabel;html=1;align=center;verticalAlign=middle;resizable=0;points=[];" vertex="1" connectable="0" parent="m0RzSoXNMWavUTcF55iz-53">
          <mxGeometry x="0.5763" y="3" relative="1" as="geometry">
            <mxPoint x="-32" y="-15" as="offset" />
          </mxGeometry>
        </mxCell>
        <mxCell id="m0RzSoXNMWavUTcF55iz-55" value="0..m" style="edgeLabel;html=1;align=center;verticalAlign=middle;resizable=0;points=[];" vertex="1" connectable="0" parent="m0RzSoXNMWavUTcF55iz-1">
          <mxGeometry x="780" y="123" as="geometry">
            <mxPoint x="-5" y="178" as="offset" />
          </mxGeometry>
        </mxCell>
      </root>
    </mxGraphModel>
  </diagram>
  <diagram id="etYZEcdkHdZNokQ9iVwD" name="Page-5">
    <mxGraphModel dx="1389" dy="977" grid="0" gridSize="10" guides="1" tooltips="1" connect="1" arrows="1" fold="1" page="0" pageScale="1" pageWidth="827" pageHeight="1169" math="0" shadow="0">
      <root>
        <mxCell id="0" />
        <mxCell id="1" parent="0" />
        <mxCell id="Coz0Wt7TkBVrxm_GRFFK-1" value="&lt;b&gt;DCC : Usine trombone&lt;/b&gt;" style="shape=umlFrame;whiteSpace=wrap;html=1;pointerEvents=0;recursiveResize=0;container=1;collapsible=0;width=160;" vertex="1" parent="1">
          <mxGeometry x="-240" y="-60" width="868" height="459" as="geometry" />
        </mxCell>
        <mxCell id="Coz0Wt7TkBVrxm_GRFFK-2" value="&lt;b&gt;Joueur&lt;/b&gt;&lt;div&gt;&lt;br/&gt;&lt;/div&gt;" style="swimlane;fontStyle=0;align=center;verticalAlign=top;childLayout=stackLayout;horizontal=1;startSize=25;horizontalStack=0;resizeParent=1;resizeParentMax=0;resizeLast=0;collapsible=0;marginBottom=0;html=1;whiteSpace=wrap;" vertex="1" parent="Coz0Wt7TkBVrxm_GRFFK-1">
          <mxGeometry x="9" y="73" width="140" height="128" as="geometry" />
        </mxCell>
        <mxCell id="Coz0Wt7TkBVrxm_GRFFK-3" value="attributs" style="text;html=1;strokeColor=none;fillColor=none;align=center;verticalAlign=middle;spacingLeft=4;spacingRight=4;overflow=hidden;rotatable=0;points=[[0,0.5],[1,0.5]];portConstraint=eastwest;whiteSpace=wrap;" vertex="1" parent="Coz0Wt7TkBVrxm_GRFFK-2">
          <mxGeometry y="25" width="140" height="20" as="geometry" />
        </mxCell>
        <mxCell id="Coz0Wt7TkBVrxm_GRFFK-4" value="- argent : int" style="text;html=1;strokeColor=none;fillColor=none;align=left;verticalAlign=middle;spacingLeft=4;spacingRight=4;overflow=hidden;rotatable=0;points=[[0,0.5],[1,0.5]];portConstraint=eastwest;whiteSpace=wrap;" vertex="1" parent="Coz0Wt7TkBVrxm_GRFFK-2">
          <mxGeometry y="45" width="140" height="20" as="geometry" />
        </mxCell>
        <mxCell id="Coz0Wt7TkBVrxm_GRFFK-6" value="" style="line;strokeWidth=1;fillColor=none;align=left;verticalAlign=middle;spacingTop=-1;spacingLeft=3;spacingRight=3;rotatable=0;labelPosition=right;points=[];portConstraint=eastwest;" vertex="1" parent="Coz0Wt7TkBVrxm_GRFFK-2">
          <mxGeometry y="65" width="140" height="8" as="geometry" />
        </mxCell>
        <mxCell id="Coz0Wt7TkBVrxm_GRFFK-7" value="opérations" style="text;html=1;strokeColor=none;fillColor=none;align=center;verticalAlign=middle;spacingLeft=4;spacingRight=4;overflow=hidden;rotatable=0;points=[[0,0.5],[1,0.5]];portConstraint=eastwest;whiteSpace=wrap;" vertex="1" parent="Coz0Wt7TkBVrxm_GRFFK-2">
          <mxGeometry y="73" width="140" height="20" as="geometry" />
        </mxCell>
        <mxCell id="69GIqI_nn3FUE4_FHblh-1" value="+ Payer (montant : int) : &lt;span style=&quot;white-space: pre;&quot;&gt;&#x9;&lt;/span&gt;&lt;span style=&quot;white-space: pre;&quot;&gt;&#x9;&lt;/span&gt;bool" style="text;html=1;strokeColor=none;fillColor=none;align=left;verticalAlign=middle;spacingLeft=4;spacingRight=4;overflow=hidden;rotatable=0;points=[[0,0.5],[1,0.5]];portConstraint=eastwest;whiteSpace=wrap;" vertex="1" parent="Coz0Wt7TkBVrxm_GRFFK-2">
          <mxGeometry y="93" width="140" height="35" as="geometry" />
        </mxCell>
        <mxCell id="Coz0Wt7TkBVrxm_GRFFK-8" value="&lt;b&gt;Usine&lt;/b&gt;&lt;div&gt;&lt;br&gt;&lt;/div&gt;" style="swimlane;fontStyle=0;align=center;verticalAlign=top;childLayout=stackLayout;horizontal=1;startSize=25;horizontalStack=0;resizeParent=1;resizeParentMax=0;resizeLast=0;collapsible=0;marginBottom=0;html=1;whiteSpace=wrap;" vertex="1" parent="Coz0Wt7TkBVrxm_GRFFK-1">
          <mxGeometry x="236" y="51" width="231" height="177" as="geometry" />
        </mxCell>
        <mxCell id="Coz0Wt7TkBVrxm_GRFFK-9" value="attributs" style="text;html=1;strokeColor=none;fillColor=none;align=center;verticalAlign=middle;spacingLeft=4;spacingRight=4;overflow=hidden;rotatable=0;points=[[0,0.5],[1,0.5]];portConstraint=eastwest;whiteSpace=wrap;" vertex="1" parent="Coz0Wt7TkBVrxm_GRFFK-8">
          <mxGeometry y="25" width="231" height="20" as="geometry" />
        </mxCell>
        <mxCell id="Coz0Wt7TkBVrxm_GRFFK-12" value="- caracteristiques : List&amp;lt;Caracteristique&amp;gt;" style="text;html=1;strokeColor=none;fillColor=none;align=left;verticalAlign=middle;spacingLeft=4;spacingRight=4;overflow=hidden;rotatable=0;points=[[0,0.5],[1,0.5]];portConstraint=eastwest;whiteSpace=wrap;" vertex="1" parent="Coz0Wt7TkBVrxm_GRFFK-8">
          <mxGeometry y="45" width="231" height="20" as="geometry" />
        </mxCell>
        <mxCell id="69GIqI_nn3FUE4_FHblh-2" value="- proprietaire : Joueur" style="text;html=1;strokeColor=none;fillColor=none;align=left;verticalAlign=middle;spacingLeft=4;spacingRight=4;overflow=hidden;rotatable=0;points=[[0,0.5],[1,0.5]];portConstraint=eastwest;whiteSpace=wrap;" vertex="1" parent="Coz0Wt7TkBVrxm_GRFFK-8">
          <mxGeometry y="65" width="231" height="20" as="geometry" />
        </mxCell>
        <mxCell id="Coz0Wt7TkBVrxm_GRFFK-13" value="" style="line;strokeWidth=1;fillColor=none;align=left;verticalAlign=middle;spacingTop=-1;spacingLeft=3;spacingRight=3;rotatable=0;labelPosition=right;points=[];portConstraint=eastwest;" vertex="1" parent="Coz0Wt7TkBVrxm_GRFFK-8">
          <mxGeometry y="85" width="231" height="8" as="geometry" />
        </mxCell>
        <mxCell id="Coz0Wt7TkBVrxm_GRFFK-14" value="opérations" style="text;html=1;strokeColor=none;fillColor=none;align=center;verticalAlign=middle;spacingLeft=4;spacingRight=4;overflow=hidden;rotatable=0;points=[[0,0.5],[1,0.5]];portConstraint=eastwest;whiteSpace=wrap;" vertex="1" parent="Coz0Wt7TkBVrxm_GRFFK-8">
          <mxGeometry y="93" width="231" height="20" as="geometry" />
        </mxCell>
        <mxCell id="HPrp7tVgI1NGp25VwuQ7-1" value="+ « create » Usine (proprietaire : Joueur)" style="text;html=1;strokeColor=none;fillColor=none;align=left;verticalAlign=middle;spacingLeft=4;spacingRight=4;overflow=hidden;rotatable=0;points=[[0,0.5],[1,0.5]];portConstraint=eastwest;whiteSpace=wrap;" vertex="1" parent="Coz0Wt7TkBVrxm_GRFFK-8">
          <mxGeometry y="113" width="231" height="20" as="geometry" />
        </mxCell>
        <mxCell id="Coz0Wt7TkBVrxm_GRFFK-15" value="+ AcheterAmelioration (amelioration : &lt;span style=&quot;white-space: pre;&quot;&gt;&#x9;&lt;/span&gt;&lt;span style=&quot;white-space: pre;&quot;&gt;&#x9;&lt;/span&gt;Amelioration) : void" style="text;html=1;strokeColor=none;fillColor=none;align=left;verticalAlign=middle;spacingLeft=4;spacingRight=4;overflow=hidden;rotatable=0;points=[[0,0.5],[1,0.5]];portConstraint=eastwest;whiteSpace=wrap;" vertex="1" parent="Coz0Wt7TkBVrxm_GRFFK-8">
          <mxGeometry y="133" width="231" height="44" as="geometry" />
        </mxCell>
        <mxCell id="Coz0Wt7TkBVrxm_GRFFK-16" value="&lt;b&gt;Amelioration&lt;/b&gt;" style="swimlane;fontStyle=0;align=center;verticalAlign=top;childLayout=stackLayout;horizontal=1;startSize=25;horizontalStack=0;resizeParent=1;resizeParentMax=0;resizeLast=0;collapsible=0;marginBottom=0;html=1;whiteSpace=wrap;" vertex="1" parent="Coz0Wt7TkBVrxm_GRFFK-1">
          <mxGeometry x="546" y="51" width="188" height="177" as="geometry" />
        </mxCell>
        <mxCell id="Coz0Wt7TkBVrxm_GRFFK-17" value="attributs" style="text;html=1;strokeColor=none;fillColor=none;align=center;verticalAlign=middle;spacingLeft=4;spacingRight=4;overflow=hidden;rotatable=0;points=[[0,0.5],[1,0.5]];portConstraint=eastwest;whiteSpace=wrap;" vertex="1" parent="Coz0Wt7TkBVrxm_GRFFK-16">
          <mxGeometry y="25" width="188" height="20" as="geometry" />
        </mxCell>
        <mxCell id="Coz0Wt7TkBVrxm_GRFFK-18" value="- amelioration : int" style="text;html=1;strokeColor=none;fillColor=none;align=left;verticalAlign=middle;spacingLeft=4;spacingRight=4;overflow=hidden;rotatable=0;points=[[0,0.5],[1,0.5]];portConstraint=eastwest;whiteSpace=wrap;" vertex="1" parent="Coz0Wt7TkBVrxm_GRFFK-16">
          <mxGeometry y="45" width="188" height="20" as="geometry" />
        </mxCell>
        <mxCell id="Coz0Wt7TkBVrxm_GRFFK-19" value="- tempsRecherche : int" style="text;html=1;strokeColor=none;fillColor=none;align=left;verticalAlign=middle;spacingLeft=4;spacingRight=4;overflow=hidden;rotatable=0;points=[[0,0.5],[1,0.5]];portConstraint=eastwest;whiteSpace=wrap;" vertex="1" parent="Coz0Wt7TkBVrxm_GRFFK-16">
          <mxGeometry y="65" width="188" height="20" as="geometry" />
        </mxCell>
        <mxCell id="Coz0Wt7TkBVrxm_GRFFK-20" value="- effets : List&amp;lt;EffetAmelioration&amp;gt;" style="text;html=1;strokeColor=none;fillColor=none;align=left;verticalAlign=middle;spacingLeft=4;spacingRight=4;overflow=hidden;rotatable=0;points=[[0,0.5],[1,0.5]];portConstraint=eastwest;whiteSpace=wrap;" vertex="1" parent="Coz0Wt7TkBVrxm_GRFFK-16">
          <mxGeometry y="85" width="188" height="20" as="geometry" />
        </mxCell>
        <mxCell id="Coz0Wt7TkBVrxm_GRFFK-21" value="" style="line;strokeWidth=1;fillColor=none;align=left;verticalAlign=middle;spacingTop=-1;spacingLeft=3;spacingRight=3;rotatable=0;labelPosition=right;points=[];portConstraint=eastwest;" vertex="1" parent="Coz0Wt7TkBVrxm_GRFFK-16">
          <mxGeometry y="105" width="188" height="8" as="geometry" />
        </mxCell>
        <mxCell id="Coz0Wt7TkBVrxm_GRFFK-22" value="opérations" style="text;html=1;strokeColor=none;fillColor=none;align=center;verticalAlign=middle;spacingLeft=4;spacingRight=4;overflow=hidden;rotatable=0;points=[[0,0.5],[1,0.5]];portConstraint=eastwest;whiteSpace=wrap;" vertex="1" parent="Coz0Wt7TkBVrxm_GRFFK-16">
          <mxGeometry y="113" width="188" height="20" as="geometry" />
        </mxCell>
        <mxCell id="Coz0Wt7TkBVrxm_GRFFK-23" value="+ AppliquerAmelioration (usine : &lt;span style=&quot;white-space: pre;&quot;&gt;&#x9;&lt;/span&gt;&lt;span style=&quot;white-space: pre;&quot;&gt;&#x9;&lt;/span&gt;Usine) : void" style="text;html=1;strokeColor=none;fillColor=none;align=left;verticalAlign=middle;spacingLeft=4;spacingRight=4;overflow=hidden;rotatable=0;points=[[0,0.5],[1,0.5]];portConstraint=eastwest;whiteSpace=wrap;" vertex="1" parent="Coz0Wt7TkBVrxm_GRFFK-16">
          <mxGeometry y="133" width="188" height="44" as="geometry" />
        </mxCell>
        <mxCell id="Coz0Wt7TkBVrxm_GRFFK-24" style="edgeStyle=orthogonalEdgeStyle;rounded=0;orthogonalLoop=1;jettySize=auto;html=1;endArrow=diamondThin;endFill=0;endSize=20;exitX=1;exitY=0.5;exitDx=0;exitDy=0;entryX=0;entryY=0.5;entryDx=0;entryDy=0;" edge="1" parent="Coz0Wt7TkBVrxm_GRFFK-1" source="Coz0Wt7TkBVrxm_GRFFK-4" target="Coz0Wt7TkBVrxm_GRFFK-12">
          <mxGeometry relative="1" as="geometry">
            <mxPoint x="314" y="-96" as="sourcePoint" />
            <mxPoint x="259" y="-110" as="targetPoint" />
            <Array as="points">
              <mxPoint x="194" y="128" />
              <mxPoint x="194" y="106" />
            </Array>
          </mxGeometry>
        </mxCell>
        <mxCell id="Coz0Wt7TkBVrxm_GRFFK-25" style="edgeStyle=orthogonalEdgeStyle;rounded=0;orthogonalLoop=1;jettySize=auto;html=1;exitX=1;exitY=0.5;exitDx=0;exitDy=0;entryX=0;entryY=0.5;entryDx=0;entryDy=0;" edge="1" parent="Coz0Wt7TkBVrxm_GRFFK-1" source="Coz0Wt7TkBVrxm_GRFFK-12" target="Coz0Wt7TkBVrxm_GRFFK-18">
          <mxGeometry relative="1" as="geometry">
            <mxPoint x="452" y="128" as="sourcePoint" />
          </mxGeometry>
        </mxCell>
        <mxCell id="Coz0Wt7TkBVrxm_GRFFK-26" value="&lt;b&gt;EffetAmelioration&lt;/b&gt;" style="swimlane;fontStyle=0;align=center;verticalAlign=top;childLayout=stackLayout;horizontal=1;startSize=25;horizontalStack=0;resizeParent=1;resizeParentMax=0;resizeLast=0;collapsible=0;marginBottom=0;html=1;whiteSpace=wrap;" vertex="1" parent="Coz0Wt7TkBVrxm_GRFFK-1">
          <mxGeometry x="535" y="280" width="210" height="133" as="geometry" />
        </mxCell>
        <mxCell id="Coz0Wt7TkBVrxm_GRFFK-27" value="attributs" style="text;html=1;strokeColor=none;fillColor=none;align=center;verticalAlign=middle;spacingLeft=4;spacingRight=4;overflow=hidden;rotatable=0;points=[[0,0.5],[1,0.5]];portConstraint=eastwest;whiteSpace=wrap;" vertex="1" parent="Coz0Wt7TkBVrxm_GRFFK-26">
          <mxGeometry y="25" width="210" height="20" as="geometry" />
        </mxCell>
        <mxCell id="Coz0Wt7TkBVrxm_GRFFK-28" value="- valeur : int" style="text;html=1;strokeColor=none;fillColor=none;align=left;verticalAlign=middle;spacingLeft=4;spacingRight=4;overflow=hidden;rotatable=0;points=[[0,0.5],[1,0.5]];portConstraint=eastwest;whiteSpace=wrap;" vertex="1" parent="Coz0Wt7TkBVrxm_GRFFK-26">
          <mxGeometry y="45" width="210" height="20" as="geometry" />
        </mxCell>
        <mxCell id="rSdaPzJnxsgGd48KvacD-1" value="- caracteristique : string&amp;nbsp;" style="text;html=1;strokeColor=none;fillColor=none;align=left;verticalAlign=middle;spacingLeft=4;spacingRight=4;overflow=hidden;rotatable=0;points=[[0,0.5],[1,0.5]];portConstraint=eastwest;whiteSpace=wrap;" vertex="1" parent="Coz0Wt7TkBVrxm_GRFFK-26">
          <mxGeometry y="65" width="210" height="20" as="geometry" />
        </mxCell>
        <mxCell id="Coz0Wt7TkBVrxm_GRFFK-29" value="" style="line;strokeWidth=1;fillColor=none;align=left;verticalAlign=middle;spacingTop=-1;spacingLeft=3;spacingRight=3;rotatable=0;labelPosition=right;points=[];portConstraint=eastwest;" vertex="1" parent="Coz0Wt7TkBVrxm_GRFFK-26">
          <mxGeometry y="85" width="210" height="8" as="geometry" />
        </mxCell>
        <mxCell id="Coz0Wt7TkBVrxm_GRFFK-30" value="opérations" style="text;html=1;strokeColor=none;fillColor=none;align=center;verticalAlign=middle;spacingLeft=4;spacingRight=4;overflow=hidden;rotatable=0;points=[[0,0.5],[1,0.5]];portConstraint=eastwest;whiteSpace=wrap;" vertex="1" parent="Coz0Wt7TkBVrxm_GRFFK-26">
          <mxGeometry y="93" width="210" height="20" as="geometry" />
        </mxCell>
        <mxCell id="Coz0Wt7TkBVrxm_GRFFK-31" value="&lt;span&gt;+ AppliquerEffet(usine : Usine) : void&lt;/span&gt;" style="text;html=1;strokeColor=none;fillColor=none;align=left;verticalAlign=middle;spacingLeft=4;spacingRight=4;overflow=hidden;rotatable=0;points=[[0,0.5],[1,0.5]];portConstraint=eastwest;whiteSpace=wrap;fontStyle=0" vertex="1" parent="Coz0Wt7TkBVrxm_GRFFK-26">
          <mxGeometry y="113" width="210" height="20" as="geometry" />
        </mxCell>
        <mxCell id="Coz0Wt7TkBVrxm_GRFFK-50" style="edgeStyle=orthogonalEdgeStyle;rounded=0;orthogonalLoop=1;jettySize=auto;html=1;exitX=1;exitY=0.5;exitDx=0;exitDy=0;entryX=1;entryY=0.5;entryDx=0;entryDy=0;endArrow=diamondThin;endFill=0;endSize=20;" edge="1" parent="Coz0Wt7TkBVrxm_GRFFK-1" source="Coz0Wt7TkBVrxm_GRFFK-28" target="Coz0Wt7TkBVrxm_GRFFK-18">
          <mxGeometry relative="1" as="geometry">
            <mxPoint x="236" y="138" as="sourcePoint" />
            <mxPoint x="173" y="118" as="targetPoint" />
            <Array as="points">
              <mxPoint x="814" y="335" />
              <mxPoint x="814" y="106" />
            </Array>
          </mxGeometry>
        </mxCell>
        <mxCell id="Coz0Wt7TkBVrxm_GRFFK-51" value="0..n" style="edgeLabel;html=1;align=center;verticalAlign=middle;resizable=0;points=[];" vertex="1" connectable="0" parent="Coz0Wt7TkBVrxm_GRFFK-50">
          <mxGeometry x="0.5763" y="3" relative="1" as="geometry">
            <mxPoint x="-32" y="-15" as="offset" />
          </mxGeometry>
        </mxCell>
        <mxCell id="Coz0Wt7TkBVrxm_GRFFK-52" value="0..m" style="edgeLabel;html=1;align=center;verticalAlign=middle;resizable=0;points=[];" vertex="1" connectable="0" parent="Coz0Wt7TkBVrxm_GRFFK-1">
          <mxGeometry x="780" y="123" as="geometry">
            <mxPoint x="-5" y="178" as="offset" />
          </mxGeometry>
        </mxCell>
        <mxCell id="rSdaPzJnxsgGd48KvacD-4" value="&lt;b&gt;Caracteristique&lt;/b&gt;" style="swimlane;fontStyle=0;align=center;verticalAlign=top;childLayout=stackLayout;horizontal=1;startSize=25;horizontalStack=0;resizeParent=1;resizeParentMax=0;resizeLast=0;collapsible=0;marginBottom=0;html=1;whiteSpace=wrap;" vertex="1" parent="Coz0Wt7TkBVrxm_GRFFK-1">
          <mxGeometry x="244" y="276" width="210" height="149" as="geometry" />
        </mxCell>
        <mxCell id="rSdaPzJnxsgGd48KvacD-5" value="attributs" style="text;html=1;strokeColor=none;fillColor=none;align=center;verticalAlign=middle;spacingLeft=4;spacingRight=4;overflow=hidden;rotatable=0;points=[[0,0.5],[1,0.5]];portConstraint=eastwest;whiteSpace=wrap;" vertex="1" parent="rSdaPzJnxsgGd48KvacD-4">
          <mxGeometry y="25" width="210" height="20" as="geometry" />
        </mxCell>
        <mxCell id="rSdaPzJnxsgGd48KvacD-6" value="- valeur : int" style="text;html=1;strokeColor=none;fillColor=none;align=left;verticalAlign=middle;spacingLeft=4;spacingRight=4;overflow=hidden;rotatable=0;points=[[0,0.5],[1,0.5]];portConstraint=eastwest;whiteSpace=wrap;" vertex="1" parent="rSdaPzJnxsgGd48KvacD-4">
          <mxGeometry y="45" width="210" height="20" as="geometry" />
        </mxCell>
        <mxCell id="rSdaPzJnxsgGd48KvacD-7" value="- nom : string" style="text;html=1;strokeColor=none;fillColor=none;align=left;verticalAlign=middle;spacingLeft=4;spacingRight=4;overflow=hidden;rotatable=0;points=[[0,0.5],[1,0.5]];portConstraint=eastwest;whiteSpace=wrap;" vertex="1" parent="rSdaPzJnxsgGd48KvacD-4">
          <mxGeometry y="65" width="210" height="20" as="geometry" />
        </mxCell>
        <mxCell id="rSdaPzJnxsgGd48KvacD-8" value="" style="line;strokeWidth=1;fillColor=none;align=left;verticalAlign=middle;spacingTop=-1;spacingLeft=3;spacingRight=3;rotatable=0;labelPosition=right;points=[];portConstraint=eastwest;" vertex="1" parent="rSdaPzJnxsgGd48KvacD-4">
          <mxGeometry y="85" width="210" height="8" as="geometry" />
        </mxCell>
        <mxCell id="rSdaPzJnxsgGd48KvacD-9" value="opérations" style="text;html=1;strokeColor=none;fillColor=none;align=center;verticalAlign=middle;spacingLeft=4;spacingRight=4;overflow=hidden;rotatable=0;points=[[0,0.5],[1,0.5]];portConstraint=eastwest;whiteSpace=wrap;" vertex="1" parent="rSdaPzJnxsgGd48KvacD-4">
          <mxGeometry y="93" width="210" height="20" as="geometry" />
        </mxCell>
        <mxCell id="rSdaPzJnxsgGd48KvacD-10" value="&lt;span&gt;+ «create» Caracteristique (nom : &lt;span style=&quot;white-space: pre;&quot;&gt;&#x9;&lt;/span&gt;&lt;span style=&quot;white-space: pre;&quot;&gt;&#x9;&lt;/span&gt;string, valeur : int)&lt;/span&gt;" style="text;html=1;strokeColor=none;fillColor=none;align=left;verticalAlign=middle;spacingLeft=4;spacingRight=4;overflow=hidden;rotatable=0;points=[[0,0.5],[1,0.5]];portConstraint=eastwest;whiteSpace=wrap;fontStyle=0" vertex="1" parent="rSdaPzJnxsgGd48KvacD-4">
          <mxGeometry y="113" width="210" height="36" as="geometry" />
        </mxCell>
        <mxCell id="rSdaPzJnxsgGd48KvacD-11" style="edgeStyle=orthogonalEdgeStyle;rounded=0;orthogonalLoop=1;jettySize=auto;html=1;exitX=0.5;exitY=0;exitDx=0;exitDy=0;endArrow=diamondThin;endFill=0;endSize=20;" edge="1" parent="Coz0Wt7TkBVrxm_GRFFK-1" source="rSdaPzJnxsgGd48KvacD-4" target="Coz0Wt7TkBVrxm_GRFFK-8">
          <mxGeometry relative="1" as="geometry">
            <mxPoint x="208" y="276" as="sourcePoint" />
            <mxPoint x="121" y="298" as="targetPoint" />
            <Array as="points">
              <mxPoint x="349" y="268" />
              <mxPoint x="349" y="268" />
            </Array>
          </mxGeometry>
        </mxCell>
      </root>
    </mxGraphModel>
  </diagram>
</mxfile>
